<svg width="38" height="39" viewBox="0 0 38 39" fill="none" xmlns="http://www.w3.org/2000/svg">
<path d="M33.4762 0H4.52381C2.02667 0 0 2.08 0 4.64286V34.3571C0 36.92 2.02667 39 4.52381 39H33.4762C35.9733 39 38 36.92 38 34.3571V4.64286C38 2.08 35.9733 0 33.4762 0ZM11.7619 14.8571V32.5H6.33333V14.8571H11.7619ZM6.33333 9.72214C6.33333 8.42214 7.41905 7.42857 9.04762 7.42857C10.6762 7.42857 11.6986 8.42214 11.7619 9.72214C11.7619 11.0221 10.7486 12.0714 9.04762 12.0714C7.41905 12.0714 6.33333 11.0221 6.33333 9.72214ZM31.6667 32.5H26.2381C26.2381 32.5 26.2381 23.9014 26.2381 23.2143C26.2381 21.3571 25.3333 19.5 23.0714 19.4629H22.999C20.8095 19.4629 19.9048 21.3757 19.9048 23.2143C19.9048 24.0593 19.9048 32.5 19.9048 32.5H14.4762V14.8571H19.9048V17.2343C19.9048 17.2343 21.651 14.8571 25.1614 14.8571C28.7533 14.8571 31.6667 17.3921 31.6667 22.5271V32.5Z" fill="white"/>
</svg>
